<svg xmlns="http://www.w3.org/2000/svg" xmlns:xlink="http://www.w3.org/1999/xlink" id="Layer_1" width="96" height="68" x="0" y="0" enable-background="new 0 0 96 68" version="1.1" viewBox="0 0 96 68" xml:space="preserve"><g><path fill="#2E478B" d="M4,0h88c2.2,0,4,1.8,4,4v60c0,2.2-1.8,4-4,4H4c-2.2,0-4-1.8-4-4V4C0,1.8,1.8,0,4,0z"/><path fill="#E20024" d="M59.5,20c8,0,14.5,6.5,14.5,14.5c0,8-6.5,14.5-14.5,14.5c-8,0-14.5-6.5-14.5-14.5C45,26.5,51.5,20,59.5,20z"/><path fill="#14A0D9" d="M36.5,49c-8,0-14.5-6.5-14.5-14.5c0-8,6.5-14.5,14.5-14.5c8,0,14.5,6.5,14.5,14.5C51,42.5,44.5,49,36.5,49z"/><path fill="#E20024" d="M47,41v-2h14v2H47z M47,27h14v2H47V27z M60,33H46v-2h14V33z M60,37H46v-2h14V37z"/><path fill="#FFF" d="M5.5,68c-3,0-5.5-2.5-5.5-5.6V5.6C0,2.5,2.4,0,5.5,0 h85.1c3,0,5.5,2.5,5.5,5.6" opacity=".05"/></g></svg>