<svg xmlns="http://www.w3.org/2000/svg" xmlns:xlink="http://www.w3.org/1999/xlink" id="Layer_1" width="96" height="68" x="0" y="0" enable-background="new 0 0 96 68" version="1.1" viewBox="0 0 96 68" xml:space="preserve"><path fill="#4361C3" d="M4,0h88c2.2,0,4,1.8,4,4v60c0,2.2-1.8,4-4,4H4c-2.2,0-4-1.8-4-4V4C0,1.8,1.8,0,4,0z"/><path fill="#FFAF38" d="M59.5,20c8,0,14.5,6.5,14.5,14.5c0,8-6.5,14.5-14.5,14.5c-8,0-14.5-6.5-14.5-14.5C45,26.5,51.5,20,59.5,20z"/><rect width="10" height="2" x="47" y="27" fill="#FFAF38"/><path fill="#EB3636" d="M36.5,49c-8,0-14.5-6.5-14.5-14.5c0-8,6.5-14.5,14.5-14.5c8,0,14.5,6.5,14.5,14.5C51,42.5,44.5,49,36.5,49z"/><path fill="#FFAF38" d="M47,41v-2h13v2H47z M47,27h13v2H47V27z M59,33H46v-2h13V33z M59,37H46v-2h13V37z"/><path fill="#FFF" d="M4,68h1.8L96,5.8V4c0-2.2-1.8-4-4-4H4C1.8,0,0,1.8,0,4v60C0,66.2,1.8,68,4,68z" opacity=".05"/></svg>